<svg width="140" height="179" viewBox="0 0 140 179" fill="none" xmlns="http://www.w3.org/2000/svg">
<path fill-rule="evenodd" clip-rule="evenodd" d="M31.8129 38.1871C31.8129 17.0969 48.9098 0 70 0C91.0901 0 108.187 17.0969 108.187 38.1871C108.187 59.2772 91.0901 76.3741 70 76.3741C48.9098 76.3741 31.8129 59.2772 31.8129 38.1871Z" fill="#03B203"/>
<path fill-rule="evenodd" clip-rule="evenodd" d="M0.000949865 157.885C0.65726 119.785 31.7449 89.1031 70 89.1031C108.256 89.1031 139.344 119.786 139.999 157.888C140.042 160.415 138.587 162.728 136.29 163.782C116.102 173.045 93.6464 178.206 70.0027 178.206C46.3568 178.206 23.8992 173.044 3.70998 163.779C1.41307 162.725 -0.0425776 160.412 0.000949865 157.885Z" fill="#03B203"/>
</svg>
